# xmcd
#
# Track frame offsets: 
#        150
#        29517
#        62963
#        80536
#        103526
#        125591
#        161966
#        180796
#        213809
#
# Disc length: 3484 seconds
#
# Revision: 0
# Processed by: cddbd v1.5.2PL0 Copyright (c) Steve Scherf et al.
# Submitted via: ExactAudioCopy v1.0b4
#
DISCID=750d9a09
DTITLE=Little Freddie King - Gotta Walk With Da King
DYEAR=2010
DGENRE=Electric Blues, Texas Blues
TTITLE0=Cleo's Back
TTITLE1=Bus Station Blues
TTITLE2=Walking With Freddie
TTITLE3=I Use To Be Down
TTITLE4=Chicken Dance
TTITLE5=Goin Out Da Mountain
TTITLE6=Kinghead Shuffle
TTITLE7=Mean Little Woman
TTITLE8=Tough Frog To Swallow
EXTD=
EXTT0=
EXTT1=
EXTT2=
EXTT3=
EXTT4=
EXTT5=
EXTT6=
EXTT7=
EXTT8=
PLAYORDER=
